<?xml version="1.0" encoding="UTF-8"?>
<svg viewBox="0 0 744.09448 1052.3622" xmlns="http://www.w3.org/2000/svg">
 <defs>
  <filter id="e">
   <feGaussianBlur stdDeviation="1.176"/>
  </filter>
  <filter id="d">
   <feGaussianBlur stdDeviation="2.553"/>
  </filter>
  <linearGradient id="c" x1="1558.9" x2="1387" y1="430.01" y2="368.2" gradientUnits="userSpaceOnUse">
   <stop offset="0"/>
   <stop stop-opacity="0" offset="1"/>
  </linearGradient>
  <linearGradient id="b" x1="704.51" x2="117.18" y1="230.18" y2="320.52" gradientUnits="userSpaceOnUse">
   <stop stop-color="#f3f3f3" offset="0"/>
   <stop stop-color="#d4d4d4" offset="1"/>
  </linearGradient>
  <radialGradient id="a" cx="1503.6" cy="242.59" r="70.47" gradientTransform="matrix(-.5875 -.0101 .05696 -3.3317 2470.7 1118.4)" gradientUnits="userSpaceOnUse">
   <stop stop-color="#fff" offset="0"/>
   <stop stop-color="#fff" stop-opacity="0" offset="1"/>
  </radialGradient>
 </defs>
 <g transform="matrix(.79852 0 0 .79852 66.718 105.38)">
  <path transform="matrix(2.8538 0 0 2.8727 -3983.9 -452.15)" d="m1497.8 439.47-86.339-54.496 144.83-21.549 44.19 39.725z" fill="url(#c)" fill-rule="evenodd" filter="url(#d)" opacity=".756"/>
  <path d="m255.67 291.5c141.76-36.722 244.66-57.426 343.48-73.328l-2.936 77.274z" fill="#ccc"/>
  <path d="m255.64 291.47 32.982 16.503 2.7153 507.74-25.281-25.209z" fill="#000080"/>
  <path d="m288.55 307.97c122.97-26.027 196.44-56.548 383.05-33.26l-36.367 483.84c-150.49 13.915-280.47 40.717-344.08 57.728z" fill="#ff9b00"/>
  <path d="m255.7632,291.493 32.7848,16.4739c113.1738-23.0542 221.5452-54.5768 383.0549-33.2602 0,0-.9861-.2028-3.0884-.4813l1.5056-3.7755-2.0326.4898 .0607-1.1268-4.3823,1.1701 .0289-2.6804-2.7118.9265 .1938-1.869-2.6635,1.1354 .0839-2.1565-4.5379,1.3411 .0405-3.2639-3.0962,1.0876 .0983-2.4751-2.6944,1.0728 .0781-2.3555-3.3207,1.1253 .0289-2.8376-1.5209.6499-.0289-1.4935-2.8466,1.3187 .0636-2.8976-3.4659,1.041 .1388-3.029-1.632.8957 .0347-1.8881-4.6073.61 .1331-3.5122-2.5501.8347 .1359-2.4655-1.9033.6574 .0492-1.9368-1.6251.5124-.0289-1.6685-1.6826.9795 .1157-2.0884-2.8518.8227 .1736-2.7361-2.4159,1.0103 .0983-2.6769-1.8559.9812 .0926-2.2529-1.7228.784 .1186-1.9368-1.634.4362v-1.6119l-2.131.2595-.107-1.8528-1.8342.33-.3029-1.8328-2.2935.599-.0318-2.2087-2.5411.5115-.1736-2.4932-3.0175.8396 .0636-4.122c-144.9677,16.1387-244.3259,39.2776-345.8244,62.0882z" fill="url(#b)" fill-rule="evenodd"/>
  <path transform="matrix(2.8926 0 0 2.8926 -4045.1 -460.25)" d="m1498.2 266.36c42.507-8.9531 67.381-19.765 132.43-12.28l-12.572 167.36c-52.026 4.7893-96.962 14.014-118.95 19.869z" fill="url(#a)" filter="url(#e)" opacity=".696"/>
 </g>
</svg>
